<svg version="1.1" xmlns="http://www.w3.org/2000/svg" xmlns:xlink="http://www.w3.org/1999/xlink" width="27" height="30"><defs/><g><path fill="rgb(255,255,255)" stroke="none" paint-order="stroke fill markers" fill-rule="evenodd" d=" M 11.261764526367188 3.5914578437805176 C 15.6624755859375 3.5914578437805176 19.944854736328125 6.470403671264648 19.944854736328125 12.21666955947876 C 19.944854736328125 17.962566375732422 15.6624755859375 20.841696739196777 11.261764526367188 20.841696739196777 C 6.861053466796875 20.841696739196777 2.5787506103515625 17.962566375732422 2.5787506103515625 12.21666955947876 C 2.5787506103515625 6.470403671264648 6.861053466796875 3.5914578437805176 11.261764526367188 3.5914578437805176 Z M 11.261764526367188 1.9998350143432617 C 6.1900482177734375 1.9998350143432617 1 5.401571273803711 1 12.21666955947876 C 1 19.031583309173584 6.1900482177734375 22.43313503265381 11.261764526367188 22.43313503265381 C 13.169265747070312 22.43313503265381 15.093093872070312 21.952972412109375 16.751800537109375 20.990063667297363 C 16.751800537109375 20.990063667297363 23.421188354492188 28.0000319480896 23.421188354492188 28.0000319480896 C 23.421188354492188 28.0000319480896 25.000015258789062 26.40859365463257 25.000015258789062 26.40859365463257 C 25.000015258789062 26.40859365463257 18.5555419921875 19.64110565185547 18.5555419921875 19.64110565185547 C 20.341354370117188 17.94208288192749 21.523605346679688 15.467270851135254 21.523605346679688 12.21666955947876 C 21.523605346679688 5.401571273803711 16.33355712890625 1.9998350143432617 11.261764526367188 1.9998350143432617 Z"/></g></svg>