<svg version="1.1" xmlns="http://www.w3.org/2000/svg" xmlns:xlink="http://www.w3.org/1999/xlink" width="32" height="32"><defs/><g><path fill="rgb(255,255,255)" stroke="none" paint-order="stroke fill markers" fill-rule="evenodd" d=" M 8.555145263671875 14.431058883666992 C 11.8524169921875 9.70084810256958 13.021697998046875 8.352997303009033 12.826690673828125 5.615406036376953 C 12.6318359375 2.8776302337646484 13.189849853515625 2.124354362487793 14.517974853515625 1.9894585609436035 C 15.846023559570312 1.854562759399414 18.34075927734375 2.5605974197387695 18.7786865234375 7.041684627532959 C 18.968124389648438 8.980419635772705 17.546768188476562 12.798469066619873 17.546768188476562 12.798469066619873 C 17.546768188476562 12.798469066619873 26.609573364257812 12.804189682006836 27.489776611328125 12.804189682006836 C 28.897552490234375 12.804189682006836 30.000457763671875 13.391014099121094 30.000457763671875 15.261655330657959 C 30.000457763671875 17.014562606811523 28.011703491210938 17.541412830352783 28.011703491210938 17.541412830352783 C 28.011703491210938 17.541412830352783 29.284515380859375 18.026373386383057 29.284515380859375 19.50026226043701 C 29.284515380859375 20.992789268493652 27.959823608398438 21.665607452392578 27.08770751953125 21.665607452392578 C 27.630615234375 21.928571224212646 28.388671875 22.433646202087402 28.221817016601562 23.7106351852417 C 28.05511474609375 24.98651695251465 27.120819091796875 25.45099401473999 26.198501586914062 25.72687530517578 C 26.794586181640625 26.085244178771973 27.228851318359375 27.077494144439697 26.897048950195312 27.840550422668457 C 26.4501953125 28.867862224578857 25.271453857421875 30.00017499923706 22.625350952148438 30.00017499923706 C 19.422836303710938 30.00017499923706 10.615386962890625 30.00017499923706 10.263824462890625 30.00017499923706 C 9.32708740234375 30.00017499923706 8.630905151367188 29.583123683929443 8.484878540039062 29.069560050964355 C 8.484878540039062 28.016597747802734 8.484878540039062 15.00109052658081 8.484878540039062 15.00109052658081 C 8.484878540039062 15.00109052658081 8.48480224609375 14.549346446990967 8.555145263671875 14.431058883666992 Z M 2.781219482421875 13.531261444091797 C 2.781219482421875 13.531261444091797 7.624969482421875 13.531261444091797 7.624969482421875 13.531261444091797 C 7.624969482421875 13.531261444091797 7.624969482421875 29.999990463256836 7.624969482421875 29.999990463256836 C 7.624969482421875 29.999990463256836 2.781219482421875 29.999990463256836 2.781219482421875 29.999990463256836 C 2.781219482421875 29.999990463256836 2.781219482421875 13.531261444091797 2.781219482421875 13.531261444091797 Z M 1.999969482421875 13.531261444091797 C 1.999969482421875 13.531261444091797 6.843719482421875 13.531261444091797 6.843719482421875 13.531261444091797 C 6.843719482421875 13.531261444091797 6.843719482421875 29.999990463256836 6.843719482421875 29.999990463256836 C 6.843719482421875 29.999990463256836 1.999969482421875 29.999990463256836 1.999969482421875 29.999990463256836 C 1.999969482421875 29.999990463256836 1.999969482421875 13.531261444091797 1.999969482421875 13.531261444091797 Z"/></g></svg>