<svg version="1.1" xmlns="http://www.w3.org/2000/svg" xmlns:xlink="http://www.w3.org/1999/xlink" width="31" height="32"><defs/><g><path fill="rgb(255,255,255)" stroke="none" paint-order="stroke fill markers" fill-rule="evenodd" d=" M 23.444900512695312 17.56909418106079 C 20.147628784179688 22.29912042617798 18.978347778320312 23.646971225738525 19.17327880859375 26.38474702835083 C 19.368209838867188 29.12233829498291 18.81011962890625 29.875614166259766 17.482070922851562 30.010509967803955 C 16.154022216796875 30.14559030532837 13.659210205078125 29.43937110900879 13.221359252929688 24.958468437194824 C 13.031845092773438 23.019548892974854 14.453201293945312 19.201499462127686 14.453201293945312 19.201499462127686 C 14.453201293945312 19.201499462127686 5.3903961181640625 19.195778846740723 4.51019287109375 19.195778846740723 C 3.1024932861328125 19.195778846740723 1.9995880126953125 18.608954429626465 1.9995880126953125 16.7383131980896 C 1.9995880126953125 14.985405921936035 3.9882659912109375 14.458555698394775 3.9882659912109375 14.458555698394775 C 3.9882659912109375 14.458555698394775 2.7155303955078125 13.973595142364502 2.7155303955078125 12.499706268310547 C 2.7155303955078125 11.007179260253906 4.0401458740234375 10.33436107635498 4.9123382568359375 10.33436107635498 C 4.3694305419921875 10.071397304534912 3.6113739013671875 9.566322326660156 3.7781524658203125 8.289517879486084 C 3.9449310302734375 7.01345157623291 4.879150390625 6.549159049987793 5.8014678955078125 6.273277759552002 C 5.2054595947265625 5.914724349975586 4.7711944580078125 4.922658920288086 5.102996826171875 4.159418106079102 C 5.549774169921875 3.132106304168701 6.728515625 1.999793529510498 9.374618530273438 1.999793529510498 C 12.577133178710938 1.999793529510498 21.38458251953125 1.999793529510498 21.736221313476562 1.999793529510498 C 22.672958374023438 1.999793529510498 23.369140625 2.4168448448181152 23.515090942382812 2.930408477783203 C 23.515090942382812 3.983370780944824 23.515090942382812 16.998878002166748 23.515090942382812 16.998878002166748 C 23.515090942382812 16.998878002166748 23.515167236328125 17.450622081756592 23.444900512695312 17.56909418106079 Z M 24.375 1.9999780654907227 C 24.375 1.9999780654907227 29.21875 1.9999780654907227 29.21875 1.9999780654907227 C 29.21875 1.9999780654907227 29.21875 18.46870708465576 29.21875 18.46870708465576 C 29.21875 18.46870708465576 24.375 18.46870708465576 24.375 18.46870708465576 C 24.375 18.46870708465576 24.375 1.9999780654907227 24.375 1.9999780654907227 Z M 25.15625 1.9999780654907227 C 25.15625 1.9999780654907227 30 1.9999780654907227 30 1.9999780654907227 C 30 1.9999780654907227 30 18.46870708465576 30 18.46870708465576 C 30 18.46870708465576 25.15625 18.46870708465576 25.15625 18.46870708465576 C 25.15625 18.46870708465576 25.15625 1.9999780654907227 25.15625 1.9999780654907227 Z"/></g></svg>